<?xml version="1.0" standalone="no"?>
<!DOCTYPE svg PUBLIC "-//W3C//DTD SVG 20010904//EN"
 "http://www.w3.org/TR/2001/REC-SVG-20010904/DTD/svg10.dtd">
<svg version="1.0" xmlns="http://www.w3.org/2000/svg"
 width="700.000000pt" height="700.000000pt" viewBox="0 0 700.000000 700.000000"
 preserveAspectRatio="xMidYMid meet">
<metadata>
Created by potrace 1.11, written by Peter Selinger 2001-2013
</metadata>
<g transform="translate(0.000000,700.000000) scale(0.100000,-0.100000)"
fill="#000000" stroke="none">
<path d="M3240 6984 c-848 -75 -1585 -408 -2174 -983 -298 -291 -515 -590
-696 -956 -177 -359 -276 -689 -336 -1115 -25 -177 -26 -670 -1 -855 89 -664
337 -1252 743 -1760 112 -141 397 -426 539 -539 510 -406 1079 -647 1755 -742
178 -26 682 -26 860 0 676 95 1245 336 1755 742 143 114 427 399 539 539 407
513 654 1096 743 1760 24 183 24 667 0 849 -90 668 -336 1251 -743 1761 -117
147 -422 449 -564 559 -519 401 -1072 632 -1725 721 -115 16 -585 29 -695 19z
m2455 -962 c462 -404 789 -893 981 -1467 29 -90 54 -168 54 -174 0 -8 -150
-11 -505 -11 l-506 0 7 748 7 747 -22 28 c-28 34 -75 36 -108 5 l-23 -21 0
-662 c0 -364 -3 -703 -6 -753 l-7 -92 -720 0 -720 0 4 756 4 756 -24 19 c-28
22 -69 25 -97 5 -28 -21 -32 -115 -33 -873 l-1 -663 -1855 0 c-1268 0 -1855 3
-1855 10 0 28 114 351 165 465 198 450 491 847 865 1173 l94 82 2106 0 2106 0
89 -78z m-2232 -3327 l6 -1525 -56 -97 c-31 -54 -87 -132 -124 -174 -67 -73
-73 -77 -266 -174 l-198 -99 -145 -16 c-141 -15 -149 -15 -320 7 -172 22 -178
24 -340 90 -147 60 -176 77 -267 147 l-102 80 -69 150 c-54 117 -79 188 -111
312 -39 154 -41 167 -41 316 0 137 -2 159 -18 179 -23 28 -73 30 -102 4 -19
-17 -20 -30 -20 -195 l0 -178 49 -183 c40 -152 62 -211 124 -340 l74 -155 116
-91 c136 -108 127 -103 336 -187 162 -65 168 -66 355 -90 l191 -25 160 18
c159 17 161 18 285 76 69 32 173 85 233 117 93 52 117 71 185 146 48 54 103
131 145 204 l67 117 0 1546 0 1545 185 0 185 0 0 -895 0 -894 22 -21 c29 -27
64 -25 93 5 l25 24 0 373 c0 205 3 606 7 891 l6 517 719 0 718 0 0 -894 0
-895 26 -20 c35 -28 65 -26 94 3 l23 25 5 890 5 891 522 0 523 0 11 -47 c64
-284 85 -739 47 -1053 -89 -748 -401 -1409 -916 -1943 -549 -570 -1249 -913
-2055 -1009 -143 -17 -567 -17 -710 0 -806 96 -1506 439 -2057 1010 -521 541
-828 1201 -920 1977 -15 134 -15 543 0 680 14 122 37 265 53 338 l11 47 1612
0 1613 0 6 -1525z"/>
</g>
</svg>
